{"title":"Luis Bunuel's Un Chien Andalou (1929) - 1080p x265 HEVC - [BRSH","uid":15620077,"size":329071302,"categoryP":"video","categoryS":"hd___movies","magnet":"?xt=urn:btih:7140eed09f4add0f9e063946c2b04ebe1be1b96c&amp;dn=+Luis+Bunuel%27s+Un+Chien+Andalou+%281929%29+-+1080p+x265+HEVC+-+%5BBRSH&amp;tr=udp%3A%2F%2Ftracker.leechers-paradise.org%3A6969&amp;tr=udp%3A%2F%2Fzer0day.ch%3A1337&amp;tr=udp%3A%2F%2Fopen.demonii.com%3A1337&amp;tr=udp%3A%2F%2Ftracker.coppersurfer.tk%3A6969&amp;tr=udp%3A%2F%2Fexodus.desync.com%3A6969","seeders":2,"leechers":2,"uploader":"BRSHNKV","files":1,"time":1471872440,"description":"Luis Buñuel and Salvador Dalí present seventeen minutes of bizarre, surreal imagery. \r\n\r\n\r\n\r\nTechnical:\r\n\r\n\r\nFormat                                   : MPEG-4\r\nFormat profile                           : Base Media / Version 2\r\nCodec ID                                 : mp42\r\nFile size                                : 314 MiB\r\nDuration                                 : 16mn 28s\r\nOverall bit rate mode                    : Variable\r\nOverall bit rate                         : 2 664 Kbps\r\nEncoded date                             : UTC 2016-05-19 19:41:19\r\nTagged date                              : UTC 2016-05-19 19:41:19\r\nWriting application                      : HandBrake 20160211184813-ffd8cb1-master 2016021301\r\n\r\nVideo\r\nID                                       : 1\r\nFormat                                   : HEVC\r\nFormat/Info                              : High Efficiency Video Coding\r\nFormat profile                           : Main   @Main\r\nCodec ID                                 : hev1\r\nCodec ID/Info                            : High Efficiency Video Coding\r\nDuration                                 : 16mn 25s\r\nBit rate                                 : 2 500 Kbps\r\nWidth                                    : 1 440 pixels\r\nHeight                                   : 1 074 pixels\r\nDisplay aspect ratio                     : 4:3\r\nFrame rate mode                          : Variable\r\nFrame rate                               : 23.976 fps\r\nMinimum frame rate                       : 23.974 fps\r\nMaximum frame rate                       : 23.981 fps\r\nColor space                              : YUV\r\nChroma subsampling                       : 4:2:0\r\nBit depth                                : 10 bits\r\nBits/(Pixel*Frame)                       : 0.067\r\nStream size                              : 294 MiB (94%)\r\nWriting library                          : x265 1.9:[Mac OS X][clang 7.0.2][64 bit] 10bit\r\nEncoded date                             : UTC 2016-05-19 19:41:19\r\nTagged date                              : UTC 2016-05-19 19:41:19\r\nColor range                              : Limited\r\nColor primaries                          : BT.709\r\nTransfer characteristics                 : BT.709\r\nMatrix coefficients                      : BT.709\r\n\r\nAudio\r\nID                                       : 2\r\nFormat                                   : AAC\r\nFormat/Info                              : Advanced Audio Codec\r\nFormat profile                           : LC\r\nCodec ID                                 : 40\r\nDuration                                 : 16mn 28s\r\nBit rate mode                            : Variable\r\nBit rate                                 : 164 Kbps\r\nChannel(s)                               : 2 channels\r\nChannel positions                        : Front: L R\r\nSampling rate                            : 48.0 KHz\r\nCompression mode                         : Lossy\r\nStream size                              : 19.3 MiB (6%)\r\nTitle                                    : Stereo / Stereo\r\nLanguage                                 : English\r\nEncoded date                             : UTC 2016-05-19 19:41:19\r\nTagged date                              : UTC 2016-05-19 19:41:19","torrent":{"xt":"urn:btih:7140eed09f4add0f9e063946c2b04ebe1be1b96c","amp;dn":"+Luis+Bunuel%27s+Un+Chien+Andalou+%281929%29+-+1080p+x265+HEVC+-+%5BBRSH","amp;tr":["udp%3A%2F%2Ftracker.leechers-paradise.org%3A6969","udp%3A%2F%2Fzer0day.ch%3A1337","udp%3A%2F%2Fopen.demonii.com%3A1337","udp%3A%2F%2Ftracker.coppersurfer.tk%3A6969","udp%3A%2F%2Fexodus.desync.com%3A6969"],"infoHash":"7140eed09f4add0f9e063946c2b04ebe1be1b96c","infoHashBuffer":{"type":"Buffer","data":[113,64,238,208,159,74,221,15,158,6,57,70,194,176,78,190,27,225,185,108]},"announce":[],"urlList":[]}}